REM DIRINDEX 1\2\5,1\2\6,1\2\7,1\2\8,1\3\9,1\3\10,1\3\11,1\4\12,1\4\13,1\4\14,1\4\15,1\4\16
REM DIRNAME cjc034,folder01,folder02,folder03,folder04,folder05,folder06,folder07,folder08,folder09,folder10,folder11,folder12,folder13,folder14,folder15
TITLE ""
FILE "1200_sec04_1246_1251.mp3" MP3
  TRACK 01 AUDIO
    TITLE "0:"
    INDEX 01 00:00:00
  TRACK 02 AUDIO
    TITLE "12:cjc034_08689"
    INDEX 01 00:00:17
  TRACK 03 AUDIO
    TITLE "0:"
    INDEX 01 00:01:34
  TRACK 04 AUDIO
    TITLE "13:cjc034_08690"
    INDEX 01 00:01:66
  TRACK 05 AUDIO
    TITLE "0:"
    INDEX 01 00:04:05
  TRACK 06 AUDIO
    TITLE "14:cjc034_08691"
    INDEX 01 00:04:36
  TRACK 07 AUDIO
    TITLE "0:"
    INDEX 01 00:05:52
  TRACK 08 AUDIO
    TITLE "15:cjc034_08692"
    INDEX 01 00:06:12
  TRACK 09 AUDIO
    TITLE "0:"
    INDEX 01 00:09:36
  TRACK 10 AUDIO
    TITLE "12:cjc034_08693"
    INDEX 01 00:10:68
  TRACK 11 AUDIO
    TITLE "0:"
    INDEX 01 00:12:20
  TRACK 12 AUDIO
    TITLE "13:cjc034_08694"
    INDEX 01 00:12:54
  TRACK 13 AUDIO
    TITLE "0:"
    INDEX 01 00:14:70
  TRACK 14 AUDIO
    TITLE "14:cjc034_08695"
    INDEX 01 00:15:28
  TRACK 15 AUDIO
    TITLE "0:"
    INDEX 01 00:16:59
  TRACK 16 AUDIO
    TITLE "15:cjc034_08696"
    INDEX 01 00:17:16
  TRACK 17 AUDIO
    TITLE "0:"
    INDEX 01 00:23:14
  TRACK 18 AUDIO
    TITLE "16:cjc034_08697"
    INDEX 01 00:24:49
  TRACK 19 AUDIO
    TITLE "0:"
    INDEX 01 00:31:27
  TRACK 20 AUDIO
    TITLE "12:cjc034_08698"
    INDEX 01 00:32:29
  TRACK 21 AUDIO
    TITLE "0:"
    INDEX 01 00:33:36
  TRACK 22 AUDIO
    TITLE "13:cjc034_08699"
    INDEX 01 00:33:68
  TRACK 23 AUDIO
    TITLE "0:"
    INDEX 01 00:37:16
  TRACK 24 AUDIO
    TITLE "14:cjc034_08700"
    INDEX 01 00:37:48
  TRACK 25 AUDIO
    TITLE "0:"
    INDEX 01 00:38:53
  TRACK 26 AUDIO
    TITLE "15:cjc034_08701"
    INDEX 01 00:39:11
  TRACK 27 AUDIO
    TITLE "0:"
    INDEX 01 00:43:31
  TRACK 28 AUDIO
    TITLE "15:cjc034_08702"
    INDEX 01 00:44:32
  TRACK 29 AUDIO
    TITLE "0:"
    INDEX 01 00:49:08
  TRACK 30 AUDIO
    TITLE "12:cjc034_08703"
    INDEX 01 00:50:42
  TRACK 31 AUDIO
    TITLE "0:"
    INDEX 01 00:51:65
  TRACK 32 AUDIO
    TITLE "13:cjc034_08704"
    INDEX 01 00:52:22
  TRACK 33 AUDIO
    TITLE "0:"
    INDEX 01 00:55:10
  TRACK 34 AUDIO
    TITLE "14:cjc034_08705"
    INDEX 01 00:55:42
  TRACK 35 AUDIO
    TITLE "0:"
    INDEX 01 00:56:65
  TRACK 36 AUDIO
    TITLE "15:cjc034_08706"
    INDEX 01 00:57:21
  TRACK 37 AUDIO
    TITLE "0:"
    INDEX 01 01:01:44
  TRACK 38 AUDIO
    TITLE "15:cjc034_08707"
    INDEX 01 01:02:46
  TRACK 39 AUDIO
    TITLE "0:"
    INDEX 01 01:06:16
  TRACK 40 AUDIO
    TITLE "12:cjc034_08708"
    INDEX 01 01:07:51
  TRACK 41 AUDIO
    TITLE "0:"
    INDEX 01 01:08:58
  TRACK 42 AUDIO
    TITLE "13:cjc034_08709"
    INDEX 01 01:09:16
  TRACK 43 AUDIO
    TITLE "0:"
    INDEX 01 01:10:26
  TRACK 44 AUDIO
    TITLE "14:cjc034_08710"
    INDEX 01 01:10:61
  TRACK 45 AUDIO
    TITLE "0:"
    INDEX 01 01:11:70
  TRACK 46 AUDIO
    TITLE "15:cjc034_08711"
    INDEX 01 01:12:26
  TRACK 47 AUDIO
    TITLE "0:"
    INDEX 01 01:15:66
  TRACK 48 AUDIO
    TITLE "15:cjc034_08712"
    INDEX 01 01:16:67
  TRACK 49 AUDIO
    TITLE "0:"
    INDEX 01 01:20:59
  TRACK 50 AUDIO
    TITLE "12:cjc034_08713"
    INDEX 01 01:22:19
  TRACK 51 AUDIO
    TITLE "0:"
    INDEX 01 01:23:32
  TRACK 52 AUDIO
    TITLE "13:cjc034_08714"
    INDEX 01 01:23:62
  TRACK 53 AUDIO
    TITLE "0:"
    INDEX 01 01:26:19
  TRACK 54 AUDIO
    TITLE "14:cjc034_08715"
    INDEX 01 01:26:52
  TRACK 55 AUDIO
    TITLE "0:"
    INDEX 01 01:27:65
  TRACK 56 AUDIO
    TITLE "15:cjc034_08716"
    INDEX 01 01:28:22
  TRACK 57 AUDIO
    TITLE "0:"
    INDEX 01 01:32:13
  TRACK 58 AUDIO
    TITLE "15:cjc034_08717"
    INDEX 01 01:33:15
  TRACK 59 AUDIO
    TITLE "0:"
    INDEX 01 01:36:41
